<?xml version="1.0" encoding="UTF-8"?>
<svg version="1.1" xmlns="http://www.w3.org/2000/svg" width="226" height="230">
<path d="M0 0 C74.58 0 149.16 0 226 0 C226 75.9 226 151.8 226 230 C151.42 230 76.84 230 0 230 C0 154.1 0 78.2 0 0 Z " fill="#FDFDFD" transform="translate(0,0)"/>
<path d="M0 0 C25.34892522 -1.18980393 25.34892522 -1.18980393 33.015625 4.171875 C36.27957541 7.17882144 38.76846211 10.16175483 41 14 C41.67482422 15.12728516 41.67482422 15.12728516 42.36328125 16.27734375 C51.8788664 33.59627011 51.30717528 56.70957436 47.03515625 75.5859375 C44.06236536 85.39053841 39.36519238 94.76862502 30.20870972 100.02911377 C21.69425005 104.06239567 12.93057092 103.50608687 3.7421875 103.390625 C1.98528695 103.38315189 0.22837798 103.37746402 -1.52853394 103.37347412 C-6.12194388 103.35830185 -10.71483682 103.31909407 -15.30804443 103.2746582 C-20.00737518 103.23352264 -24.70679058 103.2154243 -29.40625 103.1953125 C-38.6043921 103.1525904 -47.80215283 103.08444277 -57 103 C-57 105.31 -57 107.62 -57 110 C-40.17 110 -23.34 110 -6 110 C-5.9175 114.82625 -5.835 119.6525 -5.75 124.625 C-5.71358398 126.13658691 -5.67716797 127.64817383 -5.63964844 129.20556641 C-5.6296582 130.40874512 -5.61966797 131.61192383 -5.609375 132.8515625 C-5.5779541 134.68968506 -5.5779541 134.68968506 -5.54589844 136.56494141 C-6.22559672 141.70653005 -8.64734083 144.74696385 -12.38671875 148.2109375 C-29.74272976 160.09293009 -55.2278839 160.05673087 -75.3125 157.1875 C-77.21507614 156.82546123 -79.11219585 156.43250844 -81 156 C-82.31097656 155.70802734 -82.31097656 155.70802734 -83.6484375 155.41015625 C-92.90457532 153.00356042 -100.43054295 148.74706721 -105.94140625 140.83203125 C-108.02893994 137.21928844 -108.13943557 134.18059878 -108.17700195 130.0949707 C-108.18983719 128.87973221 -108.20267242 127.66449371 -108.21589661 126.41242981 C-108.22328354 125.09683578 -108.23067047 123.78124176 -108.23828125 122.42578125 C-108.24235678 121.75449881 -108.2464323 121.08321636 -108.25063133 120.39159203 C-108.27147792 116.83569016 -108.28578342 113.27982667 -108.29516602 109.72387695 C-108.30620344 106.06664271 -108.34057537 102.41002144 -108.38033772 98.75300312 C-108.40659885 95.92782022 -108.41486637 93.10278099 -108.41844749 90.2774868 C-108.4256348 88.2790037 -108.45203604 86.28061918 -108.47883606 84.28230286 C-108.45897207 75.92407538 -107.64373224 70.42339547 -102.2109375 63.828125 C-101.30214844 63.04695313 -101.30214844 63.04695313 -100.375 62.25 C-99.78460938 61.71890625 -99.19421875 61.1878125 -98.5859375 60.640625 C-90.36698989 55.42618694 -82.78803028 54.4247589 -73.14948654 54.48357964 C-71.0373394 54.49638847 -68.92646531 54.48476232 -66.81436157 54.46754456 C-63.09220636 54.44103184 -59.37037174 54.43524184 -55.64813232 54.43664551 C-49.68572637 54.43888683 -43.72371561 54.42449834 -37.76146317 54.38105965 C-35.69414105 54.37130931 -33.62745797 54.37988863 -31.56015015 54.38975525 C-22.48057262 54.34048455 -14.54170221 53.63002406 -7.7253418 47.02441406 C-0.09348415 38.0696435 -0.22724502 26.82802227 -0.1875 15.75 C-0.16429853 14.2148091 -0.13892172 12.67964948 -0.11132812 11.14453125 C-0.04919942 7.42971064 -0.01629534 3.71533816 0 0 Z " fill="#FACF44" transform="translate(170,63)"/>
<path d="M0 0 C7.05789077 7.23433804 7.07295134 13.3481618 6.9609375 23.125 C6.96002106 24.43025635 6.95910461 25.7355127 6.9581604 27.08032227 C6.95504481 29.83404072 6.9385776 32.58723397 6.91162109 35.34082031 C6.87764283 38.8544169 6.86999338 42.36743813 6.87151146 45.88117981 C6.87083401 49.25419563 6.85313964 52.62702637 6.8359375 56 C6.83371185 57.25433838 6.83148621 58.50867676 6.82919312 59.80102539 C6.72030534 69.85479624 5.6594937 77.07683346 -1.5 84.5625 C-3.77800115 86.23041013 -5.92938654 87.32479722 -8.5 88.5625 C-9.16 88.954375 -9.82 89.34625 -10.5 89.75 C-17.49773504 92.59282986 -25.85659737 91.73105732 -33.24609375 91.7734375 C-34.58456729 91.78642518 -35.92303301 91.80024386 -37.26148987 91.81484985 C-42.91392136 91.87602888 -48.56632433 91.93045668 -54.21899414 91.96386719 C-57.68968246 91.98492143 -61.15998364 92.02029859 -64.6304493 92.06462479 C-66.57780333 92.08547401 -68.5253038 92.09081075 -70.47276306 92.09579468 C-79.77205717 92.2243821 -86.90700962 93.37055673 -93.9609375 99.8125 C-99.18821725 105.75620896 -100.63971905 112.59405971 -100.81640625 120.29296875 C-100.83718735 121.04338943 -100.85796844 121.79381012 -100.87937927 122.56697083 C-100.94469926 124.96122184 -101.00367792 127.35558139 -101.0625 129.75 C-101.10570193 131.37436013 -101.14931676 132.99870933 -101.19335938 134.62304688 C-101.30036263 138.60275371 -101.40167937 142.58256958 -101.5 146.5625 C-104.95803731 146.68045981 -108.41554557 146.75032752 -111.875 146.8125 C-112.84050781 146.84601563 -113.80601563 146.87953125 -114.80078125 146.9140625 C-123.35749783 147.02891776 -130.68393352 145.28111876 -137.25 139.5625 C-141.49788473 134.90385283 -143.98078094 129.28242898 -146.5 123.5625 C-146.99693359 122.47388672 -146.99693359 122.47388672 -147.50390625 121.36328125 C-154.2484911 105.30009125 -152.58247763 80.56902009 -146.5 64.5625 C-142.46979859 55.80523239 -136.5393956 48.19886566 -127.50808716 44.36975098 C-120.60336933 42.51679928 -113.21926129 43.08410065 -106.12109375 43.171875 C-104.34034361 43.17934603 -102.55958519 43.18503489 -100.77882385 43.18902588 C-96.11799969 43.20421443 -91.45768326 43.24343679 -86.79705811 43.2878418 C-82.03079087 43.32894171 -77.26444068 43.34706818 -72.49804688 43.3671875 C-63.16514292 43.40993844 -53.83261387 43.47810647 -44.5 43.5625 C-44.5 41.2525 -44.5 38.9425 -44.5 36.5625 C-61.33 36.5625 -78.16 36.5625 -95.5 36.5625 C-95.62375 31.7775 -95.7475 26.9925 -95.875 22.0625 C-95.92962402 20.56912109 -95.98424805 19.07574219 -96.04052734 17.53710938 C-96.12938603 10.43223652 -96.05775527 5.35252612 -91.09521484 -0.02294922 C-87.83433678 -2.91452061 -84.45284406 -4.65497824 -80.5 -6.4375 C-79.88511719 -6.73398438 -79.27023438 -7.03046875 -78.63671875 -7.3359375 C-56.51488521 -16.90469633 -19.31753824 -14.41678347 0 0 Z " fill="#3872A3" transform="translate(157.5,21.4375)"/>
<path d="M0 0 C2.69990662 1.79993774 4.5418865 3.083773 6 6 C6.40391526 9.63523738 6.23463713 11.56005537 4.5 14.8125 C1.59667381 17.35291042 -0.23406039 18.01694599 -4.03125 18.2578125 C-6 18 -6 18 -8.9375 16 C-11.39017365 12.43247469 -12.0772846 10.32793752 -12 6 C-8.68791982 0.74635558 -6.16206486 -0.60412401 0 0 Z " fill="#F7F8F8" transform="translate(87,27)"/>
<path d="M0 0 C3.23805586 2.2155119 3.8984844 3.65104012 5 7.4375 C5 11 5 11 3.1875 13.875 C0.63191747 16.35756589 -0.28587634 16.92065293 -3.8125 17.3125 C-7.88445382 16.91328884 -9.30821585 16.07632474 -12 13 C-12.97852887 10.27491088 -13.30878295 7.88197423 -13 5 C-9.3147153 -0.97270278 -6.71729025 -1.50559954 0 0 Z " fill="#F9F8F8" transform="translate(146,187)"/>
</svg>
